<svg width="16" height="16" viewBox="0 0 16 16" fill="none" xmlns="http://www.w3.org/2000/svg">
<path d="M10.1933 10.86L8.66667 12.3933V4.66668C8.66667 4.48987 8.59643 4.3203 8.47141 4.19527C8.34639 4.07025 8.17682 4.00001 8 4.00001C7.82319 4.00001 7.65362 4.07025 7.5286 4.19527C7.40358 4.3203 7.33334 4.48987 7.33334 4.66668V12.3933L5.80667 10.86C5.68114 10.7345 5.51087 10.6639 5.33334 10.6639C5.1558 10.6639 4.98554 10.7345 4.86 10.86C4.73447 10.9855 4.66394 11.1558 4.66394 11.3333C4.66394 11.5109 4.73447 11.6811 4.86 11.8067L7.52667 14.4733C7.59007 14.534 7.66484 14.5816 7.74667 14.6133C7.82647 14.6486 7.91276 14.6668 8 14.6668C8.08725 14.6668 8.17354 14.6486 8.25334 14.6133C8.33517 14.5816 8.40994 14.534 8.47334 14.4733L11.14 11.8067C11.2655 11.6811 11.3361 11.5109 11.3361 11.3333C11.3361 11.1558 11.2655 10.9855 11.14 10.86C11.0778 10.7979 11.0041 10.7485 10.9228 10.7149C10.8416 10.6813 10.7546 10.6639 10.6667 10.6639C10.4891 10.6639 10.3189 10.7345 10.1933 10.86ZM12.6667 1.33334H3.33334C3.15653 1.33334 2.98696 1.40358 2.86193 1.52861C2.73691 1.65363 2.66667 1.8232 2.66667 2.00001C2.66667 2.17682 2.73691 2.34639 2.86193 2.47141C2.98696 2.59644 3.15653 2.66668 3.33334 2.66668H12.6667C12.8435 2.66668 13.0131 2.59644 13.1381 2.47141C13.2631 2.34639 13.3333 2.17682 13.3333 2.00001C13.3333 1.8232 13.2631 1.65363 13.1381 1.52861C13.0131 1.40358 12.8435 1.33334 12.6667 1.33334Z" fill="white"/>
</svg>
