<svg width="16" height="18" viewBox="0 0 16 18" fill="none" xmlns="http://www.w3.org/2000/svg">
<path d="M15.65 9.02106C15.65 5.53004 13.291 2.48551 9.90898 1.61715C9.58555 1.53278 9.25508 1.72965 9.17422 2.05309C9.08984 2.37653 9.28672 2.707 9.61016 2.78786C12.4543 3.51559 14.4406 6.082 14.4406 9.02106C14.4406 11.6121 12.8973 13.9078 10.5875 14.9168L11.1465 13.616C11.2766 13.3101 11.1359 12.955 10.8301 12.8215C10.5242 12.6914 10.1691 12.832 10.0355 13.1379L8.9457 15.6761C8.81562 15.982 8.95625 16.3371 9.26211 16.4707L11.8004 17.5605C12.1801 17.6941 12.4965 17.4726 12.5949 17.2441C12.725 16.9382 12.5844 16.5832 12.2785 16.4496L11.1746 15.975C13.8641 14.7586 15.65 12.0586 15.65 9.02106Z" fill="white"/>
<path d="M6.39687 15.2543C3.55273 14.523 1.5664 11.9601 1.5664 9.02106C1.5664 6.4652 3.06757 4.19762 5.3246 3.16754L4.80078 4.38395C4.6707 4.68981 4.80429 5.05895 5.11718 5.17848C5.48281 5.31559 5.79218 5.15035 5.91171 4.86207L7.00156 2.32027C7.10703 2.07418 7.10351 1.70504 6.68515 1.52574L4.14687 0.435899C3.84101 0.30582 3.48593 0.446445 3.35234 0.752305C3.22226 1.05816 3.36288 1.41324 3.66874 1.54684L4.84999 2.05309C2.14999 3.27301 0.357025 5.97652 0.357025 9.02106C0.357025 12.5121 2.71952 15.5531 6.09804 16.425C6.50585 16.5304 6.76249 16.2632 6.83281 15.989C6.91367 15.6656 6.72031 15.3386 6.39687 15.2543Z" fill="white"/>
<path d="M9.42733 11.2992C9.7367 10.9757 9.89139 10.5679 9.89139 10.0828C9.89139 9.86129 9.85272 9.65738 9.77889 9.46754C9.70506 9.27769 9.59959 9.11597 9.46248 8.97535C9.32537 8.83824 9.14608 8.72222 8.92811 8.62379C8.81209 8.57457 8.58006 8.50425 8.22498 8.41636V6.39839C8.4535 6.4441 8.63279 6.54254 8.76639 6.69019C8.89647 6.83785 8.98436 7.04879 9.02654 7.323L9.75076 7.21402C9.68748 6.77105 9.50467 6.41949 9.19881 6.16636C8.95975 5.96597 8.63631 5.84644 8.2285 5.80777V5.47379H7.81365V5.80777C7.34959 5.85347 6.99803 5.98355 6.76248 6.19097C6.4074 6.50035 6.23162 6.90465 6.23162 7.40386C6.23162 7.68511 6.29139 7.93472 6.41443 8.15621C6.53397 8.37769 6.70623 8.54996 6.93123 8.673C7.23358 8.84175 7.52889 8.95425 7.81717 9.00699V11.2394C7.54295 11.2113 7.30389 11.0707 7.10701 10.8211C6.9699 10.6453 6.87147 10.3675 6.81873 9.99136L6.11209 10.125C6.1367 10.4871 6.23162 10.7964 6.38983 11.0496C6.54803 11.3027 6.73787 11.4855 6.95936 11.598C7.17733 11.7105 7.46561 11.7878 7.81365 11.8336V12.5332H8.2285V11.823C8.72068 11.7984 9.12147 11.6226 9.42733 11.2992ZM7.81717 8.32847C7.49725 8.23355 7.27225 8.10347 7.13865 7.94175C7.00506 7.78004 6.93826 7.57964 6.93826 7.34058C6.93826 7.098 7.01561 6.89058 7.17381 6.7148C7.33201 6.53902 7.54647 6.43004 7.81717 6.38785V8.32847ZM8.9035 10.8808C8.7242 11.0847 8.4992 11.2007 8.2285 11.2359V9.10191C8.60467 9.22496 8.85779 9.36207 8.98436 9.51675C9.11092 9.67144 9.1742 9.87535 9.1742 10.132C9.17068 10.4273 9.08279 10.6804 8.9035 10.8808Z" fill="white"/>
</svg>
